<svg width="17" height="16" viewBox="0 0 17 16" fill="none" xmlns="http://www.w3.org/2000/svg">
<path d="M12.5251 0H4.1807C1.87541 0 0 1.87596 0 4.18193V11.8181C0 14.124 1.87541 16 4.1807 16H12.5251C14.8304 16 16.7058 14.124 16.7058 11.8181V4.18193C16.7058 1.87596 14.8304 0 12.5251 0ZM1.47482 4.18193C1.47482 2.68967 2.68887 1.47524 4.1807 1.47524H12.5251C14.0169 1.47524 15.231 2.68967 15.231 4.18193V11.8181C15.231 13.3103 14.0169 14.5248 12.5251 14.5248H4.1807C2.68887 14.5248 1.47482 13.3103 1.47482 11.8181V4.18193Z" fill="#AED5FD"/>
<path d="M8.35263 11.8889C10.4964 11.8889 12.2414 10.1443 12.2414 7.99903C12.2414 5.85372 10.4973 4.10913 8.35263 4.10913C6.20795 4.10913 4.46387 5.85372 4.46387 7.99903C4.46387 10.1443 6.20795 11.8889 8.35263 11.8889ZM8.35263 5.58532C9.68384 5.58532 10.7666 6.66837 10.7666 7.99997C10.7666 9.33157 9.68384 10.4146 8.35263 10.4146C7.02142 10.4146 5.93869 9.33157 5.93869 7.99997C5.93869 6.66837 7.02142 5.58532 8.35263 5.58532Z" fill="#AED5FD"/>
<path d="M12.6015 4.73751C13.1787 4.73751 13.6493 4.26783 13.6493 3.68945C13.6493 3.11107 13.1797 2.64136 12.6015 2.64136C12.0233 2.64136 11.5537 3.11107 11.5537 3.68945C11.5537 4.26783 12.0233 4.73751 12.6015 4.73751Z" fill="#AED5FD"/>
</svg>
