<svg width="185" height="48" viewBox="0 0 185 48" fill="none" xmlns="http://www.w3.org/2000/svg">
<path d="M16.72 32C16.72 35.7333 14.4667 37.6 9.96 37.6C5.45333 37.6 3.2 35.7333 3.2 32V28.6H6V32.16C6 33.12 6.33333 33.8667 7 34.4C7.66667 34.9333 8.65333 35.2 9.96 35.2C11.2667 35.2 12.2533 34.9333 12.92 34.4C13.5867 33.8667 13.92 33.1467 13.92 32.24C13.92 31.3067 13.8133 30.5733 13.6 30.04C13.4133 29.48 13.0133 28.8933 12.4 28.28L5.36 21.4C4.53333 20.5733 3.96 19.7733 3.64 19C3.34667 18.2 3.2 17.2 3.2 16C3.2 14.2133 3.74667 12.84 4.84 11.88C5.96 10.8933 7.64 10.4 9.88 10.4C14.1733 10.4 16.32 12.2667 16.32 16V19.4H13.52V15.84C13.52 14.88 13.2 14.1333 12.56 13.6C11.9467 13.0667 11.0133 12.8 9.76 12.8C8.50667 12.8 7.56 13.0667 6.92 13.6C6.30667 14.1333 6 14.8667 6 15.8C6 16.7333 6.09333 17.4667 6.28 18C6.46667 18.5333 6.88 19.0933 7.52 19.68L14.68 26.56C15.4533 27.4133 15.9867 28.24 16.28 29.04C16.5733 29.8133 16.72 30.8 16.72 32ZM35.1219 37H33.9219L32.8819 34.44C32.3219 35.4 31.5885 36.1733 30.6819 36.76C29.7752 37.32 28.7752 37.6 27.6819 37.6C23.8419 37.6 21.9219 35.7333 21.9219 32V28C21.9219 24.2667 23.8419 22.4 27.6819 22.4H32.3219V15.84C32.3219 14.88 32.0152 14.1333 31.4019 13.6C30.7885 13.0667 29.8819 12.8 28.6819 12.8C26.3085 12.8 25.1219 13.8133 25.1219 15.84V18.2H22.3219V16C22.3219 14.2133 22.8419 12.84 23.8819 11.88C24.9485 10.8933 26.5485 10.4 28.6819 10.4C30.8152 10.4 32.4152 10.8933 33.4819 11.88C34.5752 12.84 35.1219 14.2133 35.1219 16V37ZM32.3219 24.8H27.6819C26.5619 24.8 25.7885 25.08 25.3619 25.64C24.9352 26.2 24.7219 26.9867 24.7219 28V32C24.7219 33.0133 24.9352 33.8 25.3619 34.36C25.7885 34.92 26.5619 35.2 27.6819 35.2C28.8019 35.2 29.8419 34.7733 30.8019 33.92C31.7619 33.04 32.2685 32.1733 32.3219 31.32V24.8ZM44.3219 37H41.5219V11H52.5219V13.4H44.3219V22.6H50.9219V25H44.3219V37ZM66.7234 32V29.8H69.5234V32C69.5234 33.7867 68.9768 35.1733 67.8834 36.16C66.7901 37.12 65.1501 37.6 62.9634 37.6C60.7768 37.6 59.1234 37.12 58.0034 36.16C56.8834 35.1733 56.3234 33.7867 56.3234 32V16C56.3234 14.2133 56.8701 12.84 57.9634 11.88C59.0568 10.8933 60.6968 10.4 62.8834 10.4C65.0701 10.4 66.7234 10.8933 67.8434 11.88C68.9634 12.84 69.5234 14.2133 69.5234 16V24.8H59.1234V32C59.1234 34.1333 60.3901 35.2 62.9234 35.2C65.4568 35.2 66.7234 34.1333 66.7234 32ZM59.1234 16V22.4H66.7234V16C66.7234 13.8667 65.4568 12.8 62.9234 12.8C60.3901 12.8 59.1234 13.8667 59.1234 16ZM78.1234 37H75.3234V11H81.3634C83.4434 11 85.0168 11.4933 86.0834 12.48C87.1768 13.4667 87.7234 14.84 87.7234 16.6V23.4C87.7234 25.1867 87.1901 26.5733 86.1234 27.56C85.0568 28.52 83.4701 29 81.3634 29H78.1234V37ZM84.9234 23.4V16.6C84.9234 15.5867 84.6168 14.8 84.0034 14.24C83.3901 13.68 82.5101 13.4 81.3634 13.4H78.1234V26.6H81.3634C83.7368 26.6 84.9234 25.5333 84.9234 23.4ZM95.7219 37H92.9219V11H94.1219L95.2819 13.96C96.1352 11.5867 97.4952 10.4 99.3619 10.4C102.535 10.4 104.122 12.1333 104.122 15.6V18.2H101.442V15.44C101.442 13.68 100.709 12.8 99.2419 12.8C98.3619 12.8 97.5485 13.3067 96.8019 14.32C96.0819 15.3333 95.7219 16.8 95.7219 18.72V37ZM120.738 16V32C120.738 33.7867 120.164 35.1733 119.018 36.16C117.898 37.12 116.204 37.6 113.938 37.6C111.698 37.6 110.004 37.12 108.858 36.16C107.711 35.1733 107.138 33.7867 107.138 32V16C107.138 14.2133 107.698 12.84 108.818 11.88C109.964 10.8933 111.658 10.4 113.898 10.4C116.164 10.4 117.871 10.8933 119.018 11.88C120.164 12.84 120.738 14.2133 120.738 16ZM117.938 32V16C117.938 13.8667 116.604 12.8 113.938 12.8C111.271 12.8 109.938 13.8667 109.938 16V32C109.938 34.1333 111.271 35.2 113.938 35.2C116.604 35.2 117.938 34.1333 117.938 32ZM129.728 37H126.928V11H128.128L129.128 13.56C129.688 12.6 130.421 11.84 131.328 11.28C132.235 10.6933 133.221 10.4 134.288 10.4C136.981 10.4 138.701 11.3733 139.448 13.32C140.728 11.3733 142.408 10.4 144.488 10.4C148.248 10.4 150.128 12.2667 150.128 16V37H147.328V16C147.328 13.8667 146.368 12.8 144.448 12.8C143.328 12.8 142.288 13.2533 141.328 14.16C140.395 15.0667 139.928 15.9467 139.928 16.8V37H137.128V16C137.128 13.8667 136.168 12.8 134.248 12.8C133.128 12.8 132.088 13.24 131.128 14.12C130.195 14.9733 129.728 15.8267 129.728 16.68V37ZM158.909 37H156.109V11H162.149C164.229 11 165.803 11.4933 166.869 12.48C167.963 13.4667 168.509 14.84 168.509 16.6V23.4C168.509 25.1867 167.976 26.5733 166.909 27.56C165.843 28.52 164.256 29 162.149 29H158.909V37ZM165.709 23.4V16.6C165.709 15.5867 165.403 14.8 164.789 14.24C164.176 13.68 163.296 13.4 162.149 13.4H158.909V26.6H162.149C164.523 26.6 165.709 25.5333 165.709 23.4ZM173.108 11H181.908V13.4H175.908V32.56C175.908 33.3067 176.094 33.9333 176.468 34.44C176.868 34.9467 177.414 35.2 178.108 35.2C178.828 35.2 179.374 34.96 179.748 34.48C180.121 33.9733 180.308 33.3333 180.308 32.56V27.8H183.108V32.4C183.108 34.08 182.654 35.3733 181.748 36.28C180.868 37.16 179.668 37.6 178.148 37.6C176.628 37.6 175.401 37.16 174.468 36.28C173.561 35.3733 173.108 34.08 173.108 32.4V11Z" fill="#AED5FD"/>
</svg>
