<svg width="17" height="16" viewBox="0 0 17 16" fill="none" xmlns="http://www.w3.org/2000/svg">
<path d="M1.89679 7.59647C6.19175 5.76188 9.05573 4.55241 10.4887 3.96805C14.5802 2.29959 15.4304 2.00977 15.9845 2.00009C16.1064 1.99809 16.3789 2.0277 16.5554 2.16813C16.7045 2.2867 16.7455 2.44688 16.7651 2.5593C16.7848 2.67172 16.8092 2.92782 16.7898 3.12793C16.568 5.41192 15.6087 10.9546 15.1206 13.5127C14.9141 14.5951 14.5074 14.958 14.1137 14.9936C13.2582 15.0707 12.6085 14.4392 11.7798 13.9067C10.4831 13.0733 9.75057 12.5545 8.4919 11.7414C7.0373 10.8016 7.98026 10.2851 8.80923 9.44091C9.02618 9.21999 12.7958 5.85836 12.8688 5.55341C12.8779 5.51527 12.8864 5.37311 12.8003 5.29804C12.7141 5.22297 12.587 5.24864 12.4952 5.26906C12.3652 5.29799 10.2937 6.64035 6.28077 9.29611C5.69278 9.69195 5.1602 9.88482 4.68303 9.87472C4.15699 9.86357 3.1451 9.58311 2.39286 9.34338C1.4702 9.04933 0.736897 8.89387 0.800751 8.3945C0.834011 8.13439 1.19936 7.86838 1.89679 7.59647Z" fill="#AED5FD"/>
</svg>
